# xmcd
#
# Track frame offsets: 
#        150
#        15574
#        29119
#        42541
#        56437
#        80048
#        101584
#        127728
#        151572
#        171856
#        198297
#
# Disc length: 3151 seconds
#
# Revision: 0
# Processed by: cddbd v1.5.2PL0 Copyright (c) Steve Scherf et al.
# Submitted via: ExactAudioCopyFreeDBPlugin 1.0
#
DISCID=850c4d0b
DTITLE=Winslow - Crazy Kind of Love
DYEAR=2008
DGENRE=Soul
TTITLE0=Breakdown
TTITLE1=Move On f.Bernie Worrell
TTITLE2=Control
TTITLE3=Crazy Kind of Love
TTITLE4=Side Show
TTITLE5=Everything
TTITLE6=Masquerade
TTITLE7=Tango Between the Lines
TTITLE8=Into Tomorrow
TTITLE9=You and I
TTITLE10=Unknown
EXTD=
EXTT0=
EXTT1=
EXTT2=
EXTT3=
EXTT4=
EXTT5=
EXTT6=
EXTT7=
EXTT8=
EXTT9=
EXTT10=
PLAYORDER=
